<?xml version="1.0" ?><svg viewBox="0 0 512 512" xmlns="http://www.w3.org/2000/svg"><title/><g data-name="1" id="_1"><path d="M399,450H115a59.06,59.06,0,0,1-59-59V246a59.06,59.06,0,0,1,59-59h99.86a29,29,0,0,0,29-29h0a59.06,59.06,0,0,1,59-59H399a59.06,59.06,0,0,1,59,59V391A59.07,59.07,0,0,1,399,450ZM115,217a29,29,0,0,0-29,29V391a29,29,0,0,0,29,29H399a29,29,0,0,0,29-29V158a29,29,0,0,0-29-29H302.86a29,29,0,0,0-29,29,59.07,59.07,0,0,1-59,59Z"/><path d="M121,217a15,15,0,0,1-15-15V63a15,15,0,0,1,15-15H393a15,15,0,0,1,15,15v51a15,15,0,0,1-30,0V78H136V202A15,15,0,0,1,121,217Z"/></g></svg>